<?xml version="1.0" encoding="UTF-8" standalone="no"?>
<!-- Generator: Adobe Illustrator 16.0.0, SVG Export Plug-In . SVG Version: 6.00 Build 0)  -->

<svg
   xmlns:dc="http://purl.org/dc/elements/1.1/"
   xmlns:cc="http://creativecommons.org/ns#"
   xmlns:rdf="http://www.w3.org/1999/02/22-rdf-syntax-ns#"
   xmlns:svg="http://www.w3.org/2000/svg"
   xmlns="http://www.w3.org/2000/svg"
   xmlns:sodipodi="http://sodipodi.sourceforge.net/DTD/sodipodi-0.dtd"
   xmlns:inkscape="http://www.inkscape.org/namespaces/inkscape"
   version="1.1"
   id="Calque_1"
   x="0px"
   y="0px"
   width="38"
   height="38"
   viewBox="0 0 349.6 349.6"
   enable-background="new 0 0 283.46 283.46"
   xml:space="preserve"
   sodipodi:docname="logo.svg"
   inkscape:version="0.92.5 (2060ec1f9f, 2020-04-08)"><metadata
   id="metadata3765"><rdf:RDF><cc:Work
       rdf:about=""><dc:format>image/svg+xml</dc:format><dc:type
         rdf:resource="http://purl.org/dc/dcmitype/StillImage" /><dc:title></dc:title></cc:Work></rdf:RDF></metadata><defs
   id="defs3763" /><sodipodi:namedview
   pagecolor="#ffffff"
   bordercolor="#666666"
   borderopacity="1"
   objecttolerance="10"
   gridtolerance="10"
   guidetolerance="10"
   inkscape:pageopacity="0"
   inkscape:pageshadow="2"
   inkscape:window-width="1920"
   inkscape:window-height="1017"
   id="namedview3761"
   showgrid="false"
   scale-x="9.2"
   inkscape:zoom="13.321104"
   inkscape:cx="22.381698"
   inkscape:cy="12.041534"
   inkscape:window-x="-8"
   inkscape:window-y="-8"
   inkscape:window-maximized="1"
   inkscape:current-layer="Calque_1" />
<path
   d="m 231.3308,124.95396 -44.724,44.727 41.203,41.22101 -110.708,110.70699 c 0,0 41.533,40.331 79.925,2.29 38.42,-38.031 78.13,-77.933 78.13,-77.933 0,0 33.163,-37.09199 -1.12,-77.744 -37.475,-37.476 -42.706,-43.268 -42.706,-43.268"
   id="path3756"
   inkscape:connector-curvature="0"
   style="fill:#6f6f75" />
<path
   d="m 102.20814,312.66075 44.72,-44.744 -41.201,-41.21299 110.714,-110.711 c 0,0 -41.533,-40.324999 -79.933,-2.287 -38.417,38.026 -78.129,77.937 -78.129,77.937 0,0 -33.159,37.088 1.129,77.73499 37.471,37.475 42.7,43.283 42.7,43.283"
   id="path3758"
   inkscape:connector-curvature="0"
   style="fill:#6f6f75" />
</svg>